<svg width="1500" height="1500" viewBox="0 0 1500 1500" fill="none" xmlns="http://www.w3.org/2000/svg">
<rect width="1500" height="1500" fill="white"/>
<rect width="1500" height="1500" fill="#A700A0" fill-opacity="0.05"/>
<rect x="529" y="519" width="441" height="441" rx="50" stroke="#A700A0" stroke-width="40"/>
<mask id="path-3-inside-1" fill="white">
<rect x="509" y="568" width="481" height="228" rx="30"/>
</mask>
<rect x="509" y="568" width="481" height="228" rx="30" stroke="#A700A0" stroke-width="64" mask="url(#path-3-inside-1)"/>
<circle cx="750" cy="866" r="42.5" stroke="#A700A0" stroke-width="15"/>
<mask id="path-5-inside-2" fill="white">
<path d="M912 964C912 971.879 910.448 979.681 907.433 986.961C904.417 994.241 899.998 1000.85 894.426 1006.43C888.855 1012 882.241 1016.42 874.961 1019.43C867.681 1022.45 859.879 1024 852 1024C844.121 1024 836.319 1022.45 829.039 1019.43C821.759 1016.42 815.145 1012 809.574 1006.43C804.002 1000.85 799.583 994.241 796.567 986.961C793.552 979.681 792 971.879 792 964L852 964H912Z"/>
</mask>
<path d="M912 964C912 971.879 910.448 979.681 907.433 986.961C904.417 994.241 899.998 1000.85 894.426 1006.43C888.855 1012 882.241 1016.42 874.961 1019.43C867.681 1022.45 859.879 1024 852 1024C844.121 1024 836.319 1022.45 829.039 1019.43C821.759 1016.42 815.145 1012 809.574 1006.43C804.002 1000.85 799.583 994.241 796.567 986.961C793.552 979.681 792 971.879 792 964L852 964H912Z" stroke="#A700A0" stroke-width="30" mask="url(#path-5-inside-2)"/>
<mask id="path-6-inside-3" fill="white">
<path d="M708 964C708 971.879 706.448 979.681 703.433 986.961C700.417 994.241 695.998 1000.85 690.426 1006.43C684.855 1012 678.241 1016.42 670.961 1019.43C663.681 1022.45 655.879 1024 648 1024C640.121 1024 632.319 1022.45 625.039 1019.43C617.759 1016.42 611.145 1012 605.574 1006.43C600.002 1000.85 595.583 994.241 592.567 986.961C589.552 979.681 588 971.879 588 964L648 964H708Z"/>
</mask>
<path d="M708 964C708 971.879 706.448 979.681 703.433 986.961C700.417 994.241 695.998 1000.85 690.426 1006.43C684.855 1012 678.241 1016.42 670.961 1019.43C663.681 1022.45 655.879 1024 648 1024C640.121 1024 632.319 1022.45 625.039 1019.43C617.759 1016.42 611.145 1012 605.574 1006.43C600.002 1000.85 595.583 994.241 592.567 986.961C589.552 979.681 588 971.879 588 964L648 964H708Z" stroke="#A700A0" stroke-width="30" mask="url(#path-6-inside-3)"/>
<path d="M687.276 731.116H705.196V737H678.121V732.703L695.699 707.386H678.146V701.453H704.806V705.652L687.276 731.116Z" fill="#A700A0"/>
<path d="M735.665 708.174H762.544V717H721.932V710.555L748.299 672.579H721.968V663.68H761.958V669.979L735.665 708.174Z" fill="#A700A0"/>
<path d="M794.5 681.586H823.172V691H779.852V684.125L807.977 643.617H779.891V634.125H822.547V640.844L794.5 681.586Z" fill="#A700A0"/>
</svg>
