<svg width="600" height="600" viewBox="0 0 600 600" fill="none" xmlns="http://www.w3.org/2000/svg">
<rect x="79" y="57" width="441" height="441" rx="50" stroke="#A700A0" stroke-width="40"/>
<mask id="path-2-inside-1" fill="white">
<rect x="59" y="106" width="481" height="228" rx="30"/>
</mask>
<rect x="59" y="106" width="481" height="228" rx="30" stroke="#A700A0" stroke-width="64" mask="url(#path-2-inside-1)"/>
<circle cx="300" cy="404" r="42.5" stroke="#A700A0" stroke-width="15"/>
<mask id="path-4-inside-2" fill="white">
<path d="M462 502C462 509.879 460.448 517.681 457.433 524.961C454.417 532.241 449.998 538.855 444.426 544.426C438.855 549.998 432.241 554.417 424.961 557.433C417.681 560.448 409.879 562 402 562C394.121 562 386.319 560.448 379.039 557.433C371.759 554.417 365.145 549.998 359.574 544.426C354.002 538.855 349.583 532.241 346.567 524.961C343.552 517.681 342 509.879 342 502L402 502H462Z"/>
</mask>
<path d="M462 502C462 509.879 460.448 517.681 457.433 524.961C454.417 532.241 449.998 538.855 444.426 544.426C438.855 549.998 432.241 554.417 424.961 557.433C417.681 560.448 409.879 562 402 562C394.121 562 386.319 560.448 379.039 557.433C371.759 554.417 365.145 549.998 359.574 544.426C354.002 538.855 349.583 532.241 346.567 524.961C343.552 517.681 342 509.879 342 502L402 502H462Z" stroke="#A700A0" stroke-width="30" mask="url(#path-4-inside-2)"/>
<mask id="path-5-inside-3" fill="white">
<path d="M258 502C258 509.879 256.448 517.681 253.433 524.961C250.417 532.241 245.998 538.855 240.426 544.426C234.855 549.998 228.241 554.417 220.961 557.433C213.681 560.448 205.879 562 198 562C190.121 562 182.319 560.448 175.039 557.433C167.759 554.417 161.145 549.998 155.574 544.426C150.002 538.855 145.583 532.241 142.567 524.961C139.552 517.681 138 509.879 138 502L198 502H258Z"/>
</mask>
<path d="M258 502C258 509.879 256.448 517.681 253.433 524.961C250.417 532.241 245.998 538.855 240.426 544.426C234.855 549.998 228.241 554.417 220.961 557.433C213.681 560.448 205.879 562 198 562C190.121 562 182.319 560.448 175.039 557.433C167.759 554.417 161.145 549.998 155.574 544.426C150.002 538.855 145.583 532.241 142.567 524.961C139.552 517.681 138 509.879 138 502L198 502H258Z" stroke="#A700A0" stroke-width="30" mask="url(#path-5-inside-3)"/>
<path d="M237.276 269.116H255.196V275H228.121V270.703L245.699 245.386H228.146V239.453H254.806V243.652L237.276 269.116Z" fill="#A700A0"/>
<path d="M285.665 246.174H312.544V255H271.932V248.555L298.299 210.579H271.968V201.68H311.958V207.979L285.665 246.174Z" fill="#A700A0"/>
<path d="M344.5 219.586H373.172V229H329.852V222.125L357.977 181.617H329.891V172.125H372.547V178.844L344.5 219.586Z" fill="#A700A0"/>
</svg>
